<?xml version="1.0" encoding="utf-8"?>
<!-- Generator: Adobe Illustrator 24.1.2, SVG Export Plug-In . SVG Version: 6.00 Build 0)  -->
<svg version="1.1" id="Layer_1" xmlns="http://www.w3.org/2000/svg" xmlns:xlink="http://www.w3.org/1999/xlink" x="0px" y="0px"
	 viewBox="0 0 959 279" style="enable-background:new 0 0 959 279;" xml:space="preserve">
<style type="text/css">
	
		.st0{fill-rule:evenodd;clip-rule:evenodd;fill:#44D7B6;fill-opacity:0.7072;stroke:#000000;stroke-width:4.1667;stroke-linecap:round;stroke-linejoin:round;stroke-opacity:0.7;}
	
		.st1{fill-rule:evenodd;clip-rule:evenodd;fill:#F2B5D4;fill-opacity:0.9;stroke:#000000;stroke-width:4.1667;stroke-linecap:round;stroke-linejoin:round;stroke-opacity:0.7;}
	.st2{fill:none;stroke:#000000;stroke-width:4.1667;stroke-linecap:round;stroke-linejoin:round;stroke-opacity:0.7;}
	.st3{enable-background:new    ;}
	.st4{fill:#474746;}
	.st5{font-family:'Helvetica-Bold';}
	.st6{font-size:160px;}
	.st7{fill:#646363;}
	.st8{font-family:'Helvetica-Light';}
</style>
<g id="Page-1">
	<g id="Logo-Text" transform="translate(3.000000, 0.000000)">
		<g id="Group-2" transform="translate(0.000000, 40.000000)">
			<path id="Path" class="st0" d="M180.4,178.8H50c-10.3,0-18.6-8.3-18.6-18.6V29.8c0-10.3,8.3-18.6,18.6-18.6h102.4L199,57.8v102.4
				C199,170.5,190.7,178.8,180.4,178.8z"/>
			<polyline id="Path_1_" class="st1" points="162.1,177.1 162.1,104.2 69.1,104.2 69.1,177.1 			"/>
			<polyline id="Path_2_" class="st2" points="68.3,11.2 68.3,58.1 142.9,58.1 			"/>
		</g>
		<g class="st3">
			<text transform="matrix(1 0 0 1 219.6242 191.5)" class="st4 st5 st6">Save</text>
		</g>
		<g>
			<text transform="matrix(1 0 0 1 593.2961 191.5)" class="st5 st6"> </text>
		</g>
		<g class="st3">
			<text transform="matrix(1 0 0 1 593.2961 191.5)" class="st7 st8 st6">Tech</text>
		</g>
	</g>
</g>
</svg>
