<?xml version="1.0" standalone="no"?>
<!DOCTYPE svg PUBLIC "-//W3C//DTD SVG 20010904//EN"
 "http://www.w3.org/TR/2001/REC-SVG-20010904/DTD/svg10.dtd">
<svg version="1.0" xmlns="http://www.w3.org/2000/svg"
 width="700.000000pt" height="700.000000pt" viewBox="0 0 700.000000 700.000000"
 preserveAspectRatio="xMidYMid meet">
<metadata>
Created by potrace 1.11, written by Peter Selinger 2001-2013
</metadata>
<g transform="translate(0.000000,700.000000) scale(0.100000,-0.100000)"
fill="#000000" stroke="none">
<path d="M1325 6404 c-91 -15 -106 -19 -171 -44 -298 -111 -508 -369 -558
-684 -10 -62 -13 -538 -12 -2210 l2 -2131 22 -84 c96 -354 379 -609 731 -659
60 -8 4273 -8 4327 0 102 16 211 54 304 105 74 42 67 37 139 98 161 139 264
324 298 538 4 23 7 798 8 1722 l0 1680 -24 50 c-20 39 -189 215 -785 813 -632
633 -770 767 -816 790 l-55 27 -1670 1 c-1263 0 -1687 -3 -1740 -12z m420
-576 c3 -2 5 -278 5 -612 l1 -607 23 -54 c32 -72 74 -116 144 -151 l57 -28
1230 0 1230 0 55 25 c112 53 173 146 173 265 1 126 -70 229 -187 273 -49 18
-94 19 -1031 20 -539 0 -1010 1 -1046 1 l-65 0 0 435 c0 386 2 435 16 436 19
1 2182 1 2192 0 5 -1 296 -289 648 -641 576 -576 640 -643 641 -673 5 -184 0
-3091 -5 -3119 -16 -88 -98 -182 -184 -212 -40 -14 -124 -19 -309 -17 l-83 1
-2 1057 -3 1058 -23 47 c-29 59 -83 113 -142 141 l-45 22 -1535 0 -1535 0 -46
-23 c-55 -27 -106 -76 -139 -134 l-25 -43 -3 -1059 c-1 -583 -5 -1062 -7
-1065 -3 -2 -79 -4 -169 -4 -205 1 -245 12 -321 88 -97 98 -88 -130 -88 2245
0 1939 1 2089 17 2137 33 99 127 176 232 191 52 8 322 8 329 0z m2921 -3785
l0 -873 -35 -1 c-42 0 -2283 0 -2292 1 -4 0 -5 1744 0 1745 0 1 524 1 1164 1
l1163 0 0 -873z"/>
</g>
</svg>
